<?xml version="1.0" standalone="no"?>
<!DOCTYPE svg PUBLIC "-//W3C//DTD SVG 20010904//EN"
 "http://www.w3.org/TR/2001/REC-SVG-20010904/DTD/svg10.dtd">
<svg version="1.0" xmlns="http://www.w3.org/2000/svg"
 width="400.000000pt" height="400.000000pt" viewBox="0 0 400.000000 400.000000"
 preserveAspectRatio="xMidYMid meet">
<metadata>
Created by potrace 1.12, written by Peter Selinger 2001-2015
</metadata>
<g transform="translate(0.000000,400.000000) scale(0.100000,-0.100000)"
fill="#000000" stroke="none">
<path d="M2175 3856 c-184 -35 -378 -157 -611 -383 -56 -54 -118 -124 -138
-155 -81 -129 -132 -308 -161 -569 -15 -128 -16 -169 -6 -275 7 -69 15 -132
18 -140 4 -12 1 -13 -20 -3 -32 14 -61 0 -84 -44 -15 -27 -18 -56 -16 -190 1
-148 3 -162 27 -211 33 -67 55 -86 104 -93 l39 -5 11 -122 c7 -66 14 -203 16
-302 l5 -181 -24 -11 c-30 -14 -51 -54 -59 -112 l-6 -45 16 50 c17 52 30 75
45 75 5 0 9 -11 9 -23 0 -13 3 -27 7 -31 5 -4 8 -11 9 -14 0 -4 7 -29 15 -55
11 -40 27 -61 84 -112 38 -36 89 -77 113 -93 54 -35 116 -110 152 -183 16 -30
45 -77 65 -103 55 -73 60 -88 42 -133 -13 -33 -13 -47 -3 -93 l13 -55 16 31
c9 17 19 55 23 84 8 62 8 61 149 166 83 63 106 85 135 137 38 67 116 147 145
147 11 0 15 -5 11 -15 -3 -8 -2 -15 3 -15 4 0 14 -11 21 -25 11 -20 11 -27 0
-40 -7 -8 -11 -16 -9 -18 2 -1 13 -7 24 -13 11 -6 21 -24 23 -40 2 -22 12 -34
39 -49 28 -15 37 -27 38 -48 1 -28 18 -47 42 -47 7 0 20 -11 28 -24 11 -17 27
-25 55 -28 45 -4 44 1 -19 67 -43 45 -65 58 -55 30 4 -9 0 -15 -9 -15 -17 0
-29 24 -21 44 3 7 -5 26 -18 42 -42 52 -78 110 -78 125 0 43 -34 111 -67 133
-32 22 -34 25 -16 34 10 6 57 20 103 32 47 11 99 26 115 33 17 6 33 11 38 9 4
-1 7 3 7 9 0 7 10 9 25 5 22 -6 25 -3 25 23 0 60 71 66 89 8 17 -54 33 -145
29 -168 -2 -12 3 -24 10 -27 16 -5 7 106 -15 183 -26 92 -26 95 -7 116 10 11
24 17 32 14 12 -4 13 -3 2 10 -10 13 -5 26 33 83 55 82 86 150 131 290 82 254
94 336 111 767 3 83 13 206 22 275 20 165 13 320 -21 460 -28 111 -60 215 -81
265 -8 17 -25 58 -38 93 -40 100 -87 171 -167 252 -87 88 -162 136 -286 184
-107 41 -185 50 -279 32z m185 -1587 c0 -8 5 -8 15 1 12 10 16 8 24 -13 5 -14
15 -28 20 -32 17 -10 13 -30 -14 -59 -31 -33 -84 -35 -127 -4 -38 26 -75 31
-108 13 -59 -33 -103 -46 -112 -33 -4 7 -8 16 -8 20 0 12 41 36 99 58 31 12
65 26 76 32 48 27 135 37 135 17z m-427 -31 c12 -7 24 -14 26 -15 2 -2 -3 -11
-11 -20 -21 -25 -45 -81 -52 -124 -4 -23 -14 -40 -30 -48 -31 -17 -56 -3 -81
43 l-19 35 25 48 c25 47 78 93 106 93 7 0 23 -6 36 -12z m272 -610 c37 -1 70
-8 85 -19 25 -16 27 -16 50 2 27 20 50 25 50 9 0 -5 16 -10 35 -10 22 0 35 -5
35 -13 0 -15 -88 -82 -97 -73 -3 3 -19 -2 -35 -10 -23 -12 -45 -14 -89 -9 -49
6 -63 12 -84 37 -15 17 -24 37 -21 44 3 7 -2 18 -10 25 -11 9 -12 15 -3 26 8
9 15 10 19 4 3 -6 33 -12 65 -13z"/>
<path d="M1443 859 c-31 -11 -51 -55 -73 -164 -24 -111 -29 -125 -82 -230 -45
-90 -128 -190 -194 -236 -24 -16 -44 -34 -44 -39 0 -11 43 6 82 32 14 10 35
18 45 18 11 0 38 21 60 48 24 28 64 59 97 76 46 24 55 32 50 48 -7 23 27 65
65 79 19 8 22 14 18 39 -4 16 -2 32 4 36 6 4 6 11 -2 20 -19 24 -17 103 3 118
10 7 14 16 10 20 -4 4 -9 38 -12 76 -5 64 -6 67 -27 59z"/>
<path d="M1560 739 c-1 -8 -15 -23 -33 -34 -27 -18 -32 -26 -31 -59 2 -45 33
-81 82 -95 28 -8 34 -6 52 16 25 31 25 47 1 98 -21 45 -71 97 -71 74z"/>
<path d="M2620 634 c-59 -68 -60 -79 -7 -132 31 -31 50 -43 57 -36 5 5 19 46
30 89 l21 80 -22 18 c-30 25 -43 22 -79 -19z"/>
<path d="M2985 529 c-4 -5 8 -26 25 -47 18 -20 51 -66 74 -102 l41 -65 62 -6
c94 -9 161 -60 178 -137 8 -40 33 -66 49 -54 6 5 36 15 66 23 30 7 123 45 205
84 83 40 158 75 168 78 29 11 19 26 -20 32 -51 7 -97 20 -164 44 -31 11 -89
26 -129 32 -77 12 -182 47 -238 80 -18 10 -44 19 -58 19 -14 0 -23 3 -21 8 3
4 -27 7 -66 7 -40 0 -93 3 -119 7 -29 5 -50 4 -53 -3z"/>
<path d="M2595 382 c-35 -23 -37 -27 -19 -30 12 -2 36 -23 53 -48 18 -24 40
-44 51 -44 10 0 21 -7 24 -16 9 -23 51 -14 51 11 0 11 3 25 7 31 11 17 -3 56
-18 50 -7 -3 -31 13 -53 35 -23 21 -44 39 -49 38 -4 0 -25 -12 -47 -27z"/>
<path d="M3958 323 c24 -10 11 -31 -39 -62 -28 -17 -56 -31 -62 -31 -7 0 -36
-16 -66 -35 -75 -47 -215 -98 -300 -107 -14 -2 -26 -9 -29 -16 -2 -7 2 -10 11
-6 25 9 100 -16 130 -44 15 -14 27 -22 27 -17 0 4 -14 21 -30 37 l-30 28 26
10 c14 6 37 10 52 10 15 0 54 16 87 36 37 23 79 39 109 43 34 4 52 12 60 26 6
10 28 36 49 56 20 21 37 44 37 52 0 13 -22 28 -38 26 -4 0 -1 -3 6 -6z"/>
<path d="M421 96 c-22 -23 -46 -36 -74 -40 -23 -4 -57 -17 -77 -29 l-35 -22
80 -3 c64 -2 87 1 115 16 19 11 52 25 73 32 21 6 36 17 34 23 -4 12 -64 57
-77 57 -3 0 -21 -15 -39 -34z"/>
<path d="M2217 89 c-10 -6 -29 -8 -42 -5 -18 5 -24 1 -29 -17 -14 -52 6 -63
51 -27 31 24 56 25 113 5 48 -17 132 -20 159 -5 12 6 35 5 67 -3 64 -16 134
-11 134 9 0 20 -6 21 -165 35 -233 19 -269 20 -288 8z"/>
</g>
</svg>
